<?xml version="1.0" encoding="UTF-8" standalone="no"?>
<!-- Created with Inkscape (http://www.inkscape.org/) -->

<svg
   xmlns:dc="http://purl.org/dc/elements/1.1/"
   xmlns:cc="http://creativecommons.org/ns#"
   xmlns:rdf="http://www.w3.org/1999/02/22-rdf-syntax-ns#"
   xmlns:svg="http://www.w3.org/2000/svg"
   xmlns="http://www.w3.org/2000/svg"
   xmlns:sodipodi="http://sodipodi.sourceforge.net/DTD/sodipodi-0.dtd"
   xmlns:inkscape="http://www.inkscape.org/namespaces/inkscape"
   version="1.1"
   width="62.299999"
   height="57.512501"
   id="svg2"
   xml:space="preserve"
   inkscape:version="0.48.2 r9819"
   sodipodi:docname="ET_Ka2014-Logo_mini_cmyk.svg"><sodipodi:namedview
     pagecolor="#ffffff"
     bordercolor="#666666"
     borderopacity="1"
     objecttolerance="10"
     gridtolerance="10"
     guidetolerance="10"
     inkscape:pageopacity="0"
     inkscape:pageshadow="2"
     inkscape:window-width="2556"
     inkscape:window-height="1396"
     id="namedview3114"
     showgrid="false"
     inkscape:zoom="21.002806"
     inkscape:cx="22.721492"
     inkscape:cy="28.758063"
     inkscape:window-x="4"
     inkscape:window-y="0"
     inkscape:window-maximized="1"
     inkscape:current-layer="svg2" /><metadata
     id="metadata8"><rdf:RDF><cc:Work
         rdf:about=""><dc:format>image/svg+xml</dc:format><dc:type
           rdf:resource="http://purl.org/dc/dcmitype/StillImage" /><dc:title></dc:title></cc:Work></rdf:RDF></metadata><defs
     id="defs6" /><g
     transform="matrix(1.25,0,0,-1.25,0,57.5125)"
     id="g10"
     style="fill:#ffffff;fill-opacity:1"><g
       transform="scale(0.1,0.1)"
       id="g12"
       style="fill:#ffffff;fill-opacity:1"><path
         d="m 0,154.234 244.746,0 0,61.1719 -244.746,0 0,-61.1719 z"
         inkscape:connector-curvature="0"
         id="path14"
         style="fill:#ffffff;fill-opacity:1;fill-rule:nonzero;stroke:none" /><path
         d="m 0,276.582 244.746,0 0,61.1836 -244.746,0 0,-61.1836 z"
         inkscape:connector-curvature="0"
         id="path16"
         style="fill:#ffffff;fill-opacity:1;fill-rule:nonzero;stroke:none" /><path
         d="m 0.0117188,460.129 0,-61.172 336.5112812,0 0,-122.375 61.172,0 0,122.375 91.778,0 0,61.172 -489.4612812,0"
         inkscape:connector-curvature="0"
         id="path18"
         style="fill:#ffffff;fill-opacity:1;fill-rule:nonzero;stroke:none" /><path
         d="m 0.00390625,101.309 9.33203375,0 0,-18.4145 0.18359,0 c 0.92967,1.6094 1.92187,3.0899 2.84767,4.5703 l 9.4531,13.8442 11.5586,0 -13.7851,-17.7348 14.5273,-23.9179 -11,0 -10.2031,17.9843 -3.58206,-4.3867 0,-13.5976 -9.33203375,0 0,41.6527"
         inkscape:connector-curvature="0"
         id="path20"
         style="fill:#ffffff;fill-opacity:1;fill-rule:nonzero;stroke:none" /><path
         d="m 62.457,77.3945 -2.5976,8.836 c -0.7422,2.4687 -1.4844,5.5625 -2.1016,8.039 l -0.125,0 c -0.6172,-2.4765 -1.2344,-5.625 -1.914,-8.039 l -2.4727,-8.836 9.2109,0 z m -10.5703,-7.0429 -2.9648,-10.6953 -9.7656,0 12.7304,41.6527 12.3594,0 12.918,-41.6527 -10.1368,0 -3.2148,10.6953 -11.9258,0"
         inkscape:connector-curvature="0"
         id="path22"
         style="fill:#ffffff;fill-opacity:1;fill-rule:nonzero;stroke:none" /><path
         d="m 94.1367,82.832 3.711,0 c 4.6953,0 7.4723,2.3477 7.4723,5.9961 0,3.8282 -2.59,5.7461 -6.9177,5.8047 -2.289,0 -3.582,-0.1836 -4.2656,-0.3086 l 0,-11.4922 z m -9.332,17.922 c 3.0273,0.496 7.5391,0.867 12.5469,0.867 6.1794,0 10.5034,-0.93 13.4724,-3.2772 2.473,-1.9766 3.828,-4.8829 3.828,-8.7149 0,-5.3125 -3.769,-8.9609 -7.351,-10.2578 l 0,-0.1875 c 2.902,-1.1719 4.512,-3.9531 5.558,-7.7813 1.301,-4.6992 2.602,-10.1367 3.403,-11.746 l -9.641,0 c -0.68,1.1718 -1.672,4.5781 -2.906,9.7031 -1.113,5.1914 -2.902,6.6133 -6.7345,6.6758 l -2.8438,0 0,-16.3789 -9.332,0 0,41.0977"
         inkscape:connector-curvature="0"
         id="path24"
         style="fill:#ffffff;fill-opacity:1;fill-rule:nonzero;stroke:none" /><path
         d="m 124.355,101.309 9.458,0 0,-33.7426 16.562,0 0,-7.9101 -26.02,0 0,41.6527"
         inkscape:connector-curvature="0"
         id="path26"
         style="fill:#ffffff;fill-opacity:1;fill-rule:nonzero;stroke:none" /><path
         d="m 156.559,69.3594 c 2.535,-1.2969 6.425,-2.5977 10.445,-2.5977 4.32,0 6.609,1.793 6.609,4.5117 0,2.5977 -1.976,4.0821 -6.98,5.875 -6.926,2.4063 -11.438,6.2422 -11.438,12.293 0,7.1133 5.934,12.5506 15.762,12.5506 4.691,0 8.152,-0.992 10.625,-2.1053 l -2.102,-7.6015 c -1.667,0.8046 -4.632,1.9843 -8.71,1.9843 -4.082,0 -6.059,-1.8593 -6.059,-4.0195 0,-2.6562 2.352,-3.8359 7.727,-5.875 7.351,-2.7148 10.816,-6.5469 10.816,-12.418 0,-6.9843 -5.379,-12.9179 -16.809,-12.9179 -4.761,0 -9.457,1.2382 -11.804,2.5312 l 1.918,7.7891"
         inkscape:connector-curvature="0"
         id="path28"
         style="fill:#ffffff;fill-opacity:1;fill-rule:nonzero;stroke:none" /><path
         d="m 201.41,82.832 3.711,0 c 4.699,0 7.477,2.3477 7.477,5.9961 0,3.8282 -2.594,5.7461 -6.918,5.8047 -2.289,0 -3.586,-0.1836 -4.27,-0.3086 l 0,-11.4922 z m -9.332,17.922 c 3.027,0.496 7.539,0.867 12.551,0.867 6.176,0 10.504,-0.93 13.473,-3.2772 2.468,-1.9766 3.828,-4.8829 3.828,-8.7149 0,-5.3125 -3.77,-8.9609 -7.356,-10.2578 l 0,-0.1875 c 2.906,-1.1719 4.512,-3.9531 5.563,-7.7813 1.301,-4.6992 2.597,-10.1367 3.398,-11.746 l -9.64,0 c -0.676,1.1718 -1.668,4.5781 -2.903,9.7031 -1.113,5.1914 -2.906,6.6133 -6.734,6.6758 l -2.848,0 0,-16.3789 -9.332,0 0,41.0977"
         inkscape:connector-curvature="0"
         id="path30"
         style="fill:#ffffff;fill-opacity:1;fill-rule:nonzero;stroke:none" /><path
         d="m 240.586,101.309 0,-23.9731 c 0,-7.1718 2.719,-10.8164 7.539,-10.8164 4.945,0 7.664,3.461 7.664,10.8164 l 0,23.9731 9.391,0 0,-23.3598 c 0,-12.8515 -6.489,-18.9687 -17.364,-18.9687 -10.507,0 -16.683,5.8047 -16.683,19.0937 l 0,23.2348 9.453,0"
         inkscape:connector-curvature="0"
         id="path32"
         style="fill:#ffffff;fill-opacity:1;fill-rule:nonzero;stroke:none" /><path
         d="m 285.461,101.309 0,-16.0043 15.508,0 0,16.0043 9.39,0 0,-41.6527 -9.39,0 0,17.4296 -15.508,0 0,-17.4296 -9.461,0 0,41.6527 9.461,0"
         inkscape:connector-curvature="0"
         id="path34"
         style="fill:#ffffff;fill-opacity:1;fill-rule:nonzero;stroke:none" /><path
         d="m 346.133,77.2695 -15.32,0 0,-9.8867 17.117,0 0,-7.7265 -26.578,0 0,41.6527 25.711,0 0,-7.7231 -16.25,0 0,-8.6523 15.32,0 0,-7.6641"
         inkscape:connector-curvature="0"
         id="path36"
         style="fill:#ffffff;fill-opacity:1;fill-rule:nonzero;stroke:none" /><path
         d="m 366.684,82.832 3.711,0 c 4.699,0 7.476,2.3477 7.476,5.9961 0,3.8282 -2.594,5.7461 -6.918,5.8047 -2.293,0 -3.586,-0.1836 -4.269,-0.3086 l 0,-11.4922 z m -9.329,17.922 c 3.028,0.496 7.54,0.867 12.547,0.867 6.176,0 10.504,-0.93 13.473,-3.2772 2.469,-1.9766 3.828,-4.8829 3.828,-8.7149 0,-5.3125 -3.769,-8.9609 -7.355,-10.2578 l 0,-0.1875 c 2.906,-1.1719 4.511,-3.9531 5.562,-7.7813 1.301,-4.6992 2.598,-10.1367 3.399,-11.746 l -9.637,0 c -0.68,1.1718 -1.672,4.5781 -2.906,9.7031 -1.114,5.1914 -2.907,6.6133 -6.735,6.6758 l -2.847,0 0,-16.3789 -9.329,0 0,41.0977"
         inkscape:connector-curvature="0"
         id="path38"
         style="fill:#ffffff;fill-opacity:1;fill-rule:nonzero;stroke:none" /><path
         d="m 24.7852,18.2305 -15.32426,0 0,-9.88675 17.12106,0 0,-7.722656 -26.57809375,0 0,41.648406 25.71089375,0 0,-7.7226 -16.25386,0 0,-8.6524 15.32426,0 0,-7.664"
         inkscape:connector-curvature="0"
         id="path40"
         style="fill:#ffffff;fill-opacity:1;fill-rule:nonzero;stroke:none" /><path
         d="m 36.0078,0.621094 0,41.648406 11,0 8.6524,-15.2617 c 2.4687,-4.3867 4.9453,-9.5742 6.7968,-14.2734 l 0.1836,0 c -0.6133,5.4961 -0.8008,11.1211 -0.8008,17.3633 l 0,12.1718 8.6485,0 0,-41.648406 -9.8828,0 -8.9024,16.066406 c -2.4687,4.4492 -5.1875,9.8281 -7.2304,14.7109 L 44.2852,31.332 c 0.25,-5.4961 0.3711,-11.3711 0.3711,-18.1679 l 0,-12.543006 -8.6485,0"
         inkscape:connector-curvature="0"
         id="path42"
         style="fill:#ffffff;fill-opacity:1;fill-rule:nonzero;stroke:none" /><path
         d="m 87.8594,34.3594 -11.1836,0 0,7.9101 32.0122,0 0,-7.9101 -11.3716,0 0,-33.738306 -9.457,0 0,33.738306"
         inkscape:connector-curvature="0"
         id="path44"
         style="fill:#ffffff;fill-opacity:1;fill-rule:nonzero;stroke:none" /><path
         d="m 122.965,0.621094 -9.891,41.648406 10.074,0 3.153,-17.1757 c 0.926,-4.9454 1.789,-10.3243 2.472,-14.5235 l 0.122,0 c 0.679,4.5117 1.671,9.5195 2.722,14.6445 l 3.52,17.0547 10.008,0 3.339,-17.5468 c 0.93,-4.8829 1.61,-9.3321 2.231,-13.9649 l 0.121,0 c 0.613,4.6328 1.543,9.5156 2.406,14.457 l 3.399,17.0547 9.582,0 -10.754,-41.648406 -10.196,0 -3.527,17.918006 c -0.801,4.2031 -1.476,8.0976 -1.976,12.8593 l -0.122,0 c -0.742,-4.6992 -1.421,-8.6562 -2.414,-12.8593 l -3.953,-17.918006 -10.316,0"
         inkscape:connector-curvature="0"
         id="path46"
         style="fill:#ffffff;fill-opacity:1;fill-rule:nonzero;stroke:none" /><path
         d="m 173.551,0.621094 9.45703,0 0,41.6484 -9.45703,0 0,-41.6484 z"
         inkscape:connector-curvature="0"
         id="path48"
         style="fill:#ffffff;fill-opacity:1;fill-rule:nonzero;stroke:none" /><path
         d="M 221.996,1.79297 C 220.27,0.929688 216.371,0 211.309,0 196.91,0 189.492,8.96484 189.492,20.8281 c 0,14.2149 10.137,22.125 22.738,22.125 4.883,0 8.594,-0.9883 10.258,-1.8554 l -1.914,-7.4805 c -1.914,0.8086 -4.566,1.5469 -7.91,1.5469 -7.473,0 -13.285,-4.5118 -13.285,-13.7774 0,-8.3437 4.941,-13.59764 13.351,-13.59764 2.84,0 5.993,0.61719 7.844,1.35938 l 1.422,-7.35547"
         inkscape:connector-curvature="0"
         id="path50"
         style="fill:#ffffff;fill-opacity:1;fill-rule:nonzero;stroke:none" /><path
         d="m 230.48,42.2695 9.329,0 0,-18.414 0.187,0 c 0.926,1.6093 1.918,3.0937 2.848,4.5742 l 9.453,13.8398 11.555,0 -13.786,-17.7343 14.528,-23.914106 -11,0 -10.199,17.984406 -3.586,-4.3907 0,-13.593706 -9.329,0 0,41.648406"
         inkscape:connector-curvature="0"
         id="path52"
         style="fill:#ffffff;fill-opacity:1;fill-rule:nonzero;stroke:none" /><path
         d="m 271.293,42.2695 9.461,0 0,-33.73825 16.559,0 0,-7.910156 -26.02,0 0,41.648406"
         inkscape:connector-curvature="0"
         id="path54"
         style="fill:#ffffff;fill-opacity:1;fill-rule:nonzero;stroke:none" /><path
         d="m 329.707,18.2305 -15.32,0 0,-9.88675 17.117,0 0,-7.722656 -26.578,0 0,41.648406 25.711,0 0,-7.7226 -16.25,0 0,-8.6524 15.32,0 0,-7.664"
         inkscape:connector-curvature="0"
         id="path56"
         style="fill:#ffffff;fill-opacity:1;fill-rule:nonzero;stroke:none" /><path
         d="m 350.266,23.793 3.711,0 c 4.695,0 7.472,2.3515 7.472,5.9961 0,3.8281 -2.594,5.7461 -6.918,5.8086 -2.289,0 -3.586,-0.1875 -4.265,-0.3086 l 0,-11.4961 z m -9.332,17.9218 c 3.027,0.4961 7.539,0.8672 12.546,0.8672 6.176,0 10.504,-0.9257 13.473,-3.2734 2.473,-1.9805 3.828,-4.8828 3.828,-8.7188 0,-5.3125 -3.769,-8.957 -7.351,-10.2578 l 0,-0.1836 c 2.902,-1.1718 4.508,-3.957 5.558,-7.7851 1.301,-4.69924 2.598,-10.13674 3.399,-11.742206 l -9.637,0 c -0.68,1.171876 -1.672,4.574216 -2.906,9.699206 -1.114,5.1914 -2.906,6.6133 -6.735,6.6758 l -2.843,0 0,-16.375006 -9.332,0 0,41.093706"
         inkscape:connector-curvature="0"
         id="path58"
         style="fill:#ffffff;fill-opacity:1;fill-rule:nonzero;stroke:none" /><path
         d="m 388.457,34.3594 -11.187,0 0,7.9101 32.011,0 0,-7.9101 -11.371,0 0,-33.738306 -9.453,0 0,33.738306"
         inkscape:connector-curvature="0"
         id="path60"
         style="fill:#ffffff;fill-opacity:1;fill-rule:nonzero;stroke:none" /><path
         d="m 433.723,18.3555 -2.602,8.8359 c -0.738,2.4727 -1.48,5.5625 -2.098,8.0352 l -0.128,0 c -0.614,-2.4727 -1.235,-5.6211 -1.915,-8.0352 l -2.468,-8.8359 9.211,0 z m -10.575,-7.043 -2.96,-10.691406 -9.766,0 12.726,41.648406 12.364,0 12.918,-41.648406 -10.137,0 -3.215,10.691406 -11.93,0"
         inkscape:connector-curvature="0"
         id="path62"
         style="fill:#ffffff;fill-opacity:1;fill-rule:nonzero;stroke:none" /><path
         d="M 489.617,2.53516 C 486.715,1.54688 481.215,0.1875 475.715,0.1875 c -7.606,0 -13.102,1.91797 -16.938,5.625 -3.828,3.58203 -5.929,9.0234 -5.867,15.1406 0.063,13.8438 10.137,21.75 23.793,21.75 5.375,0 9.52,-1.0468 11.555,-2.039 l -1.981,-7.5391 c -2.285,0.9922 -5.125,1.793 -9.699,1.793 -7.848,0 -13.781,-4.4492 -13.781,-13.4727 0,-8.5898 5.379,-13.65624 13.101,-13.65624 2.165,0 3.891,0.2461 4.633,0.61719 l 0,8.71095 -6.426,0 0,7.3555 15.512,0 0,-21.93754"
         inkscape:connector-curvature="0"
         id="path64"
         style="fill:#ffffff;fill-opacity:1;fill-rule:nonzero;stroke:none" /><path
         d="m 278.953,154.031 0,6.86 8.762,8.504 c 21.074,20.058 30.598,30.722 30.723,43.164 0,8.379 -4.063,16.125 -16.375,16.125 -7.493,0 -13.711,-3.813 -17.524,-6.985 l -3.555,7.871 c 5.715,4.825 13.84,8.379 23.364,8.379 17.769,0 25.261,-12.187 25.261,-23.996 0,-15.23 -11.046,-27.547 -28.437,-44.305 l -6.602,-6.093 0,-0.254 37.071,0 0,-9.27 -52.688,0"
         inkscape:connector-curvature="0"
         id="path66"
         style="fill:#ffffff;fill-opacity:1;fill-rule:nonzero;stroke:none" /><path
         d="m 350.32,194.91 c 0,-21.453 6.606,-33.64 16.758,-33.64 11.43,0 16.887,13.332 16.887,34.406 0,20.308 -5.203,33.64 -16.758,33.64 -9.773,0 -16.887,-11.933 -16.887,-34.406 z m 44.817,1.274 c 0,-28.059 -10.41,-43.547 -28.692,-43.547 -16.125,0 -27.043,15.105 -27.297,42.402 0,27.676 11.938,42.91 28.696,42.91 17.39,0 27.293,-15.488 27.293,-41.765"
         inkscape:connector-curvature="0"
         id="path68"
         style="fill:#ffffff;fill-opacity:1;fill-rule:nonzero;stroke:none" /><path
         d="m 419.277,226.145 -0.254,0 -14.343,-7.747 -2.16,8.504 18.027,9.653 9.519,0 0,-82.524 -10.789,0 0,72.114"
         inkscape:connector-curvature="0"
         id="path70"
         style="fill:#ffffff;fill-opacity:1;fill-rule:nonzero;stroke:none" /><path
         d="m 476.293,185.266 0,27.547 c 0,4.316 0.129,8.632 0.383,12.949 l -0.383,0 c -2.539,-4.824 -4.57,-8.379 -6.855,-12.188 l -20.184,-28.054 0,-0.254 27.039,0 z m 0,-31.235 0,22.473 -38.34,0 0,7.363 36.817,52.688 12.062,0 0,-51.289 11.551,0 0,-8.762 -11.551,0 0,-22.473 -10.539,0"
         inkscape:connector-curvature="0"
         id="path72"
         style="fill:#ffffff;fill-opacity:1;fill-rule:nonzero;stroke:none" /></g></g></svg>
