<svg id="Layer_2" data-name="Layer 2" xmlns="http://www.w3.org/2000/svg" xmlns:xlink="http://www.w3.org/1999/xlink" viewBox="0 0 283.404 33.5592"><defs><style>.cls-1{fill:#eb5a37;}.cls-2{fill:url(#linear-gradient);}</style><linearGradient id="linear-gradient" x1="0.0607" y1="17.008" x2="283.4647" y2="17.008" gradientUnits="userSpaceOnUse"><stop offset="0" stop-color="#fc9253"/><stop offset="1" stop-color="#eb5a37"/></linearGradient></defs><title>tcc_wortmarke_orange-gradient_rgb</title><path class="cls-1" d="M5.0747,23.628a5.1426,5.1426,0,0,1-.721-3.032V9.323h5.227V7.913H4.3537V3.604h-.836l-.819,4.031-2.638.737v.951h2.638V20.826a5.8582,5.8582,0,0,0,1.122,3.965,4.4278,4.4278,0,0,0,3.483,1.262,8.6084,8.6084,0,0,0,2.72-.393V24.349a12.1635,12.1635,0,0,1-2.688.262,2.6176,2.6176,0,0,1-2.261-.983" transform="translate(-0.0607 -0.2284)"/><path class="cls-1" d="M27.592,25.7254V14.0744q0-6.5055-6.063-6.505a8.8211,8.8211,0,0,0-3.785.721,5.9749,5.9749,0,0,0-2.524,2.327h-.115l.082-2.278V.2284H13.565v25.497h1.622v-9.832q0-3.621,1.483-5.235a6.0717,6.0717,0,0,1,4.679-1.614,4.5638,4.5638,0,0,1,3.506,1.22,5.6345,5.6345,0,0,1,1.131,3.909v11.552Z" transform="translate(-0.0607 -0.2284)"/><path class="cls-1" d="M43.7529,15.5986H32.7419a7.991,7.991,0,0,1,1.819-4.891,5.3335,5.3335,0,0,1,4.129-1.696,4.4315,4.4315,0,0,1,3.72,1.745,7.77,7.77,0,0,1,1.343,4.842m1.721,1.442V15.73a9.0673,9.0673,0,0,0-1.819-5.965A6.1068,6.1068,0,0,0,38.69,7.57a6.9229,6.9229,0,0,0-5.653,2.564,10.4462,10.4462,0,0,0-2.098,6.825,9.6178,9.6178,0,0,0,2.171,6.702,7.7627,7.7627,0,0,0,6.055,2.393,15.5,15.5,0,0,0,2.819-.238,13.0173,13.0173,0,0,0,2.785-.893v-1.475a16.2245,16.2245,0,0,1-2.925.918,14.9153,14.9153,0,0,1-2.679.213,6.0245,6.0245,0,0,1-4.809-1.934,8.4254,8.4254,0,0,1-1.713-5.604Z" transform="translate(-0.0607 -0.2284)"/><path class="cls-1" d="M60.177,25.7582a8.0551,8.0551,0,0,0,2.45-1.065v-4.277a9.6415,9.6415,0,0,1-2.458,1.204,8.888,8.888,0,0,1-2.671.385q-3.9,0-3.9-5.374,0-5.5395,3.9-5.539a7.0838,7.0838,0,0,1,2.032.303q1.0155.3045,2.196.779L63.2,8.3062a12.7153,12.7153,0,0,0-5.702-1.245,8.728,8.728,0,0,0-6.669,2.466q-2.328,2.466-2.327,7.137,0,9.3885,8.553,9.389a13.7559,13.7559,0,0,0,3.122-.295" transform="translate(-0.0607 -0.2284)"/><path class="cls-1" d="M77.8269,16.5326a7.802,7.802,0,0,1-.876,4.121,3.1441,3.1441,0,0,1-2.876,1.385,3.1941,3.1941,0,0,1-2.909-1.393,7.69,7.69,0,0,1-.893-4.113,7.5582,7.5582,0,0,1,.885-4.088,3.763,3.763,0,0,1,5.785.008,7.5771,7.5771,0,0,1,.884,4.08m5.113,0a11.05,11.05,0,0,0-1.081-5.031,7.6513,7.6513,0,0,0-3.098-3.293,9.2384,9.2384,0,0,0-4.653-1.147,8.607,8.607,0,0,0-6.588,2.49,9.7934,9.7934,0,0,0-2.343,6.981,11.1492,11.1492,0,0,0,1.082,5.047,7.6837,7.6837,0,0,0,3.097,3.318,9.1889,9.1889,0,0,0,4.653,1.156A8.553,8.553,0,0,0,80.58,23.53a9.8451,9.8451,0,0,0,2.36-6.997" transform="translate(-0.0607 -0.2284)"/><path class="cls-1" d="M98.1025,17.1714a6.49,6.49,0,0,1-.975,3.786,3.3866,3.3866,0,0,1-2.81,1.114,3.0515,3.0515,0,0,1-2.671-1.352,7.1638,7.1638,0,0,1-.934-4.056,7.5654,7.5654,0,0,1,.925-4.121,2.9333,2.9333,0,0,1,2.598-1.417,3.3769,3.3769,0,0,1,2.957,1.278,7.4839,7.4839,0,0,1,.91,4.228Zm4.67,8.554V.2284h-5.014v5.866a20.3547,20.3547,0,0,0,.377,3.654h-.164a5.9789,5.9789,0,0,0-5.277-2.687,6.0947,6.0947,0,0,0-5.17,2.515,11.5379,11.5379,0,0,0-1.876,7.022,11.5284,11.5284,0,0,0,1.844,6.948,5.95,5.95,0,0,0,5.071,2.507,5.722,5.722,0,0,0,5.195-2.704h.213l.967,2.376Z" transform="translate(-0.0607 -0.2284)"/><path class="cls-1" d="M118.31,14.4848h-7.013a4.6614,4.6614,0,0,1,1.032-2.86,3.17,3.17,0,0,1,2.491-1.008,3.2741,3.2741,0,0,1,2.524,1.008,4.1708,4.1708,0,0,1,.966,2.86m4.687,3.326v-2.425a8.3675,8.3675,0,0,0-2.163-6.112,8.07,8.07,0,0,0-6.047-2.213,8.1982,8.1982,0,0,0-6.366,2.516q-2.3025,2.5155-2.302,7.12a9.2436,9.2436,0,0,0,2.491,6.915,9.4526,9.4526,0,0,0,6.915,2.441,17.6813,17.6813,0,0,0,3.638-.319,11.7352,11.7352,0,0,0,2.802-.975v-3.867a15.75,15.75,0,0,1-3.081,1.098,13.7672,13.7672,0,0,1-3.13.344,4.4387,4.4387,0,0,1-3.31-1.197,4.8133,4.8133,0,0,1-1.262-3.326Z" transform="translate(-0.0607 -0.2284)"/><path class="cls-1" d="M138.6428,25.2175V23.71a11.5648,11.5648,0,0,1-4.506.869,5.7874,5.7874,0,0,1-4.72-2.04,8.605,8.605,0,0,1-1.687-5.645,8.875,8.875,0,0,1,1.687-5.826,6.0966,6.0966,0,0,1,4.966-2.023,12.9645,12.9645,0,0,1,4.014.77l.443-1.442a12.3652,12.3652,0,0,0-4.425-.803,7.8948,7.8948,0,0,0-6.145,2.466,9.8672,9.8672,0,0,0-2.245,6.89,9.7021,9.7021,0,0,0,2.163,6.719,7.6277,7.6277,0,0,0,5.981,2.409,10.214,10.214,0,0,0,4.474-.836" transform="translate(-0.0607 -0.2284)"/><path class="cls-1" d="M153.2928,18.4174a6.09,6.09,0,0,1-1.647,4.531,6.1123,6.1123,0,0,1-4.498,1.63,4.1643,4.1643,0,0,1-2.892-.926,3.3208,3.3208,0,0,1-1.024-2.597,3.3754,3.3754,0,0,1,1.597-3.089,11.7768,11.7768,0,0,1,5.351-1.172l3.113-.131Zm1.606,7.308V13.8784a6.6972,6.6972,0,0,0-1.45-4.753,5.7867,5.7867,0,0,0-4.384-1.523,13.5652,13.5652,0,0,0-5.8,1.376l.606,1.409A11.1331,11.1331,0,0,1,149,9.0114a4.002,4.002,0,0,1,3.326,1.294,6.0546,6.0546,0,0,1,1.033,3.835v1.18l-3.392.098a11.8144,11.8144,0,0,0-6.285,1.524,4.59,4.59,0,0,0-2.171,4.047,4.805,4.805,0,0,0,1.459,3.72,5.7953,5.7953,0,0,0,4.08,1.344,7.3782,7.3782,0,0,0,3.351-.713,8.457,8.457,0,0,0,2.761-2.433h.131l.41,2.818Z" transform="translate(-0.0607 -0.2284)"/><path class="cls-1" d="M183.2192,25.7254V14.0744q0-3.3915-1.458-4.949a5.7211,5.7211,0,0,0-4.376-1.556,6.7185,6.7185,0,0,0-3.334.819,6.0509,6.0509,0,0,0-2.335,2.343h-.066q-1.1955-3.162-5.407-3.162a6.2437,6.2437,0,0,0-2.999.729,5.1122,5.1122,0,0,0-2.098,2.056h-.098l-.344-2.441H159.36v17.812h1.623v-9.832q0-3.588,1.278-5.219a4.8659,4.8659,0,0,1,4.08-1.63q4.13,0,4.129,4.506v12.175h1.655V15.2874a7.1084,7.1084,0,0,1,1.311-4.736,5.0828,5.0828,0,0,1,4.048-1.507,3.8571,3.8571,0,0,1,3.113,1.196,5.8161,5.8161,0,0,1,1.016,3.801v11.684Z" transform="translate(-0.0607 -0.2284)"/><path class="cls-1" d="M201.0035,16.8936a9.42,9.42,0,0,1-1.499,5.686,4.9581,4.9581,0,0,1-4.236,2.032q-3.162,0-4.564-1.787-1.401-1.785-1.401-5.964v-.525q0-3.867,1.459-5.579a5.681,5.681,0,0,1,4.572-1.713q5.6685,0,5.669,7.85m1.721-.066q0-4.5225-1.893-6.891a6.6214,6.6214,0,0,0-5.497-2.367,6.437,6.437,0,0,0-5.867,2.884h-.098l-.311-2.54h-1.377v25.874h1.622v-6.784q0-1.4415-.065-2.655l-.049-1.376h.114a6.5094,6.5094,0,0,0,5.998,3.081,6.6629,6.6629,0,0,0,5.432-2.417,10.4331,10.4331,0,0,0,1.991-6.809" transform="translate(-0.0607 -0.2284)"/><path class="cls-1" d="M206.23,7.9133v11.634q0,6.5055,6.079,6.506,4.4415,0,6.178-2.786h.098l.295,2.458h1.377V7.9133h-1.606v9.832q0,3.621-1.499,5.227a6.1208,6.1208,0,0,1-4.679,1.606,4.56,4.56,0,0,1-3.506-1.221,5.63,5.63,0,0,1-1.131-3.908V7.9133Z" transform="translate(-0.0607 -0.2284)"/><path class="cls-1" d="M235.7408,19.007a5.0933,5.0933,0,0,0-1.647-1.581,19.0909,19.0909,0,0,0-3.507-1.565,13.826,13.826,0,0,1-3.875-1.868,2.7672,2.7672,0,0,1-.991-2.229,2.2131,2.2131,0,0,1,1.278-1.999,7.041,7.041,0,0,1,3.457-.721,12.8368,12.8368,0,0,1,4.867,1.082l.606-1.475a14.0554,14.0554,0,0,0-5.473-1.082,8.1532,8.1532,0,0,0-4.694,1.164,3.652,3.652,0,0,0-1.68,3.162,3.9529,3.9529,0,0,0,.549,2.139,5.1846,5.1846,0,0,0,1.63,1.573,20.4915,20.4915,0,0,0,3.753,1.663,11.9753,11.9753,0,0,1,3.58,1.803,2.8424,2.8424,0,0,1,1.09,2.261,2.6651,2.6651,0,0,1-1.368,2.335,7.4752,7.4752,0,0,1-4.007.877,12.5069,12.5069,0,0,1-5.669-1.344v1.753a12.3059,12.3059,0,0,0,5.669,1.098,8.8511,8.8511,0,0,0,5.162-1.286,4.2341,4.2341,0,0,0,1.819-3.679,3.8676,3.8676,0,0,0-.549-2.081" transform="translate(-0.0607 -0.2284)"/><polygon class="cls-1" points="263.981 7.525 268.124 7.525 258.901 25.656 254.757 25.656 263.981 7.525"/><polygon class="cls-1" points="253.163 21.513 243.488 16.591 253.163 11.668 253.163 7.525 239.416 14.519 239.416 18.662 253.163 25.656 253.163 21.513"/><polygon class="cls-1" points="269.717 11.669 279.392 16.591 269.717 21.513 269.717 25.657 283.404 18.694 283.404 14.489 269.717 7.525 269.717 11.669"/><path class="cls-2" d="M5.0747,23.628a5.1426,5.1426,0,0,1-.721-3.032V9.323h5.227V7.913H4.3537V3.604h-.836l-.819,4.031-2.638.737v.951h2.638V20.826a5.8582,5.8582,0,0,0,1.122,3.965,4.4278,4.4278,0,0,0,3.483,1.262,8.6084,8.6084,0,0,0,2.72-.393V24.349a12.1635,12.1635,0,0,1-2.688.262,2.6176,2.6176,0,0,1-2.261-.983" transform="translate(-0.0607 -0.2284)"/><path class="cls-2" d="M27.592,25.7254V14.0744q0-6.5055-6.063-6.505a8.8211,8.8211,0,0,0-3.785.721,5.9749,5.9749,0,0,0-2.524,2.327h-.115l.082-2.278V.2284H13.565v25.497h1.622v-9.832q0-3.621,1.483-5.235a6.0717,6.0717,0,0,1,4.679-1.614,4.5638,4.5638,0,0,1,3.506,1.22,5.6345,5.6345,0,0,1,1.131,3.909v11.552Z" transform="translate(-0.0607 -0.2284)"/><path class="cls-2" d="M43.7529,15.5986H32.7419a7.991,7.991,0,0,1,1.819-4.891,5.3335,5.3335,0,0,1,4.129-1.696,4.4315,4.4315,0,0,1,3.72,1.745,7.77,7.77,0,0,1,1.343,4.842m1.721,1.442V15.73a9.0673,9.0673,0,0,0-1.819-5.965A6.1068,6.1068,0,0,0,38.69,7.57a6.9229,6.9229,0,0,0-5.653,2.564,10.4462,10.4462,0,0,0-2.098,6.825,9.6178,9.6178,0,0,0,2.171,6.702,7.7627,7.7627,0,0,0,6.055,2.393,15.5,15.5,0,0,0,2.819-.238,13.0173,13.0173,0,0,0,2.785-.893v-1.475a16.2245,16.2245,0,0,1-2.925.918,14.9153,14.9153,0,0,1-2.679.213,6.0245,6.0245,0,0,1-4.809-1.934,8.4254,8.4254,0,0,1-1.713-5.604Z" transform="translate(-0.0607 -0.2284)"/><path class="cls-2" d="M60.177,25.7582a8.0551,8.0551,0,0,0,2.45-1.065v-4.277a9.6415,9.6415,0,0,1-2.458,1.204,8.888,8.888,0,0,1-2.671.385q-3.9,0-3.9-5.374,0-5.5395,3.9-5.539a7.0838,7.0838,0,0,1,2.032.303q1.0155.3045,2.196.779L63.2,8.3062a12.7153,12.7153,0,0,0-5.702-1.245,8.728,8.728,0,0,0-6.669,2.466q-2.328,2.466-2.327,7.137,0,9.3885,8.553,9.389a13.7559,13.7559,0,0,0,3.122-.295" transform="translate(-0.0607 -0.2284)"/><path class="cls-2" d="M77.8269,16.5326a7.802,7.802,0,0,1-.876,4.121,3.1441,3.1441,0,0,1-2.876,1.385,3.1941,3.1941,0,0,1-2.909-1.393,7.69,7.69,0,0,1-.893-4.113,7.5582,7.5582,0,0,1,.885-4.088,3.763,3.763,0,0,1,5.785.008,7.5771,7.5771,0,0,1,.884,4.08m5.113,0a11.05,11.05,0,0,0-1.081-5.031,7.6513,7.6513,0,0,0-3.098-3.293,9.2384,9.2384,0,0,0-4.653-1.147,8.607,8.607,0,0,0-6.588,2.49,9.7934,9.7934,0,0,0-2.343,6.981,11.1492,11.1492,0,0,0,1.082,5.047,7.6837,7.6837,0,0,0,3.097,3.318,9.1889,9.1889,0,0,0,4.653,1.156A8.553,8.553,0,0,0,80.58,23.53a9.8451,9.8451,0,0,0,2.36-6.997" transform="translate(-0.0607 -0.2284)"/><path class="cls-2" d="M98.1025,17.1714a6.49,6.49,0,0,1-.975,3.786,3.3866,3.3866,0,0,1-2.81,1.114,3.0515,3.0515,0,0,1-2.671-1.352,7.1638,7.1638,0,0,1-.934-4.056,7.5654,7.5654,0,0,1,.925-4.121,2.9333,2.9333,0,0,1,2.598-1.417,3.3769,3.3769,0,0,1,2.957,1.278,7.4839,7.4839,0,0,1,.91,4.228Zm4.67,8.554V.2284h-5.014v5.866a20.3547,20.3547,0,0,0,.377,3.654h-.164a5.9789,5.9789,0,0,0-5.277-2.687,6.0947,6.0947,0,0,0-5.17,2.515,11.5379,11.5379,0,0,0-1.876,7.022,11.5284,11.5284,0,0,0,1.844,6.948,5.95,5.95,0,0,0,5.071,2.507,5.722,5.722,0,0,0,5.195-2.704h.213l.967,2.376Z" transform="translate(-0.0607 -0.2284)"/><path class="cls-2" d="M118.31,14.4848h-7.013a4.6614,4.6614,0,0,1,1.032-2.86,3.17,3.17,0,0,1,2.491-1.008,3.2741,3.2741,0,0,1,2.524,1.008,4.1708,4.1708,0,0,1,.966,2.86m4.687,3.326v-2.425a8.3675,8.3675,0,0,0-2.163-6.112,8.07,8.07,0,0,0-6.047-2.213,8.1982,8.1982,0,0,0-6.366,2.516q-2.3025,2.5155-2.302,7.12a9.2436,9.2436,0,0,0,2.491,6.915,9.4526,9.4526,0,0,0,6.915,2.441,17.6813,17.6813,0,0,0,3.638-.319,11.7352,11.7352,0,0,0,2.802-.975v-3.867a15.75,15.75,0,0,1-3.081,1.098,13.7672,13.7672,0,0,1-3.13.344,4.4387,4.4387,0,0,1-3.31-1.197,4.8133,4.8133,0,0,1-1.262-3.326Z" transform="translate(-0.0607 -0.2284)"/><path class="cls-2" d="M138.6428,25.2175V23.71a11.5648,11.5648,0,0,1-4.506.869,5.7874,5.7874,0,0,1-4.72-2.04,8.605,8.605,0,0,1-1.687-5.645,8.875,8.875,0,0,1,1.687-5.826,6.0966,6.0966,0,0,1,4.966-2.023,12.9645,12.9645,0,0,1,4.014.77l.443-1.442a12.3652,12.3652,0,0,0-4.425-.803,7.8948,7.8948,0,0,0-6.145,2.466,9.8672,9.8672,0,0,0-2.245,6.89,9.7021,9.7021,0,0,0,2.163,6.719,7.6277,7.6277,0,0,0,5.981,2.409,10.214,10.214,0,0,0,4.474-.836" transform="translate(-0.0607 -0.2284)"/><path class="cls-2" d="M153.2928,18.4174a6.09,6.09,0,0,1-1.647,4.531,6.1123,6.1123,0,0,1-4.498,1.63,4.1643,4.1643,0,0,1-2.892-.926,3.3208,3.3208,0,0,1-1.024-2.597,3.3754,3.3754,0,0,1,1.597-3.089,11.7768,11.7768,0,0,1,5.351-1.172l3.113-.131Zm1.606,7.308V13.8784a6.6972,6.6972,0,0,0-1.45-4.753,5.7867,5.7867,0,0,0-4.384-1.523,13.5652,13.5652,0,0,0-5.8,1.376l.606,1.409A11.1331,11.1331,0,0,1,149,9.0114a4.002,4.002,0,0,1,3.326,1.294,6.0546,6.0546,0,0,1,1.033,3.835v1.18l-3.392.098a11.8144,11.8144,0,0,0-6.285,1.524,4.59,4.59,0,0,0-2.171,4.047,4.805,4.805,0,0,0,1.459,3.72,5.7953,5.7953,0,0,0,4.08,1.344,7.3782,7.3782,0,0,0,3.351-.713,8.457,8.457,0,0,0,2.761-2.433h.131l.41,2.818Z" transform="translate(-0.0607 -0.2284)"/><path class="cls-2" d="M183.2192,25.7254V14.0744q0-3.3915-1.458-4.949a5.7211,5.7211,0,0,0-4.376-1.556,6.7185,6.7185,0,0,0-3.334.819,6.0509,6.0509,0,0,0-2.335,2.343h-.066q-1.1955-3.162-5.407-3.162a6.2437,6.2437,0,0,0-2.999.729,5.1122,5.1122,0,0,0-2.098,2.056h-.098l-.344-2.441H159.36v17.812h1.623v-9.832q0-3.588,1.278-5.219a4.8659,4.8659,0,0,1,4.08-1.63q4.13,0,4.129,4.506v12.175h1.655V15.2874a7.1084,7.1084,0,0,1,1.311-4.736,5.0828,5.0828,0,0,1,4.048-1.507,3.8571,3.8571,0,0,1,3.113,1.196,5.8161,5.8161,0,0,1,1.016,3.801v11.684Z" transform="translate(-0.0607 -0.2284)"/><path class="cls-2" d="M201.0035,16.8936a9.42,9.42,0,0,1-1.499,5.686,4.9581,4.9581,0,0,1-4.236,2.032q-3.162,0-4.564-1.787-1.401-1.785-1.401-5.964v-.525q0-3.867,1.459-5.579a5.681,5.681,0,0,1,4.572-1.713q5.6685,0,5.669,7.85m1.721-.066q0-4.5225-1.893-6.891a6.6214,6.6214,0,0,0-5.497-2.367,6.437,6.437,0,0,0-5.867,2.884h-.098l-.311-2.54h-1.377v25.874h1.622v-6.784q0-1.4415-.065-2.655l-.049-1.376h.114a6.5094,6.5094,0,0,0,5.998,3.081,6.6629,6.6629,0,0,0,5.432-2.417,10.4331,10.4331,0,0,0,1.991-6.809" transform="translate(-0.0607 -0.2284)"/><path class="cls-2" d="M206.23,7.9133v11.634q0,6.5055,6.079,6.506,4.4415,0,6.178-2.786h.098l.295,2.458h1.377V7.9133h-1.606v9.832q0,3.621-1.499,5.227a6.1208,6.1208,0,0,1-4.679,1.606,4.56,4.56,0,0,1-3.506-1.221,5.63,5.63,0,0,1-1.131-3.908V7.9133Z" transform="translate(-0.0607 -0.2284)"/><path class="cls-2" d="M235.7408,19.007a5.0933,5.0933,0,0,0-1.647-1.581,19.0909,19.0909,0,0,0-3.507-1.565,13.826,13.826,0,0,1-3.875-1.868,2.7672,2.7672,0,0,1-.991-2.229,2.2131,2.2131,0,0,1,1.278-1.999,7.041,7.041,0,0,1,3.457-.721,12.8368,12.8368,0,0,1,4.867,1.082l.606-1.475a14.0554,14.0554,0,0,0-5.473-1.082,8.1532,8.1532,0,0,0-4.694,1.164,3.652,3.652,0,0,0-1.68,3.162,3.9529,3.9529,0,0,0,.549,2.139,5.1846,5.1846,0,0,0,1.63,1.573,20.4915,20.4915,0,0,0,3.753,1.663,11.9753,11.9753,0,0,1,3.58,1.803,2.8424,2.8424,0,0,1,1.09,2.261,2.6651,2.6651,0,0,1-1.368,2.335,7.4752,7.4752,0,0,1-4.007.877,12.5069,12.5069,0,0,1-5.669-1.344v1.753a12.3059,12.3059,0,0,0,5.669,1.098,8.8511,8.8511,0,0,0,5.162-1.286,4.2341,4.2341,0,0,0,1.819-3.679,3.8676,3.8676,0,0,0-.549-2.081" transform="translate(-0.0607 -0.2284)"/><polygon class="cls-2" points="263.981 7.525 268.124 7.525 258.901 25.656 254.757 25.656 263.981 7.525"/><polygon class="cls-2" points="253.163 21.513 243.488 16.591 253.163 11.668 253.163 7.525 239.416 14.519 239.416 18.662 253.163 25.656 253.163 21.513"/><polygon class="cls-2" points="269.717 11.669 279.392 16.591 269.717 21.513 269.717 25.657 283.404 18.694 283.404 14.489 269.717 7.525 269.717 11.669"/></svg>