<?xml version="1.0" encoding="utf-8"?>
<!-- Generator: Adobe Illustrator 15.1.0, SVG Export Plug-In . SVG Version: 6.00 Build 0)  -->
<!DOCTYPE svg PUBLIC "-//W3C//DTD SVG 1.0//EN" "http://www.w3.org/TR/2001/REC-SVG-20010904/DTD/svg10.dtd">
<svg version="1.0" id="Ebene_1" xmlns="http://www.w3.org/2000/svg" xmlns:xlink="http://www.w3.org/1999/xlink" x="0px" y="0px"
	 width="746.078px" height="400px" viewBox="0 0 746.078 400" enable-background="new 0 0 746.078 400" xml:space="preserve">
<path fill="#AE1F4A" d="M697.889,317.622c-7.471-0.355-13.501-1.9-20.938-8.581c-9.271-8.331-97.549-118.491-97.549-118.491
	L640.676,128c7.104-7.282,13.688-13.458,20.562-17.886c9.112-5.539,16.649-6.276,25.706-6.276c7.804,0,6.97,0,6.97,0V87.314
	l-76.886-0.032l-0.006,16.557h22.43l-99.237,97.917l90.399,116.383h-37.322v18.018h115.278v-18.533H697.889"/>
<path fill="#AE1F4A" d="M283.001,269.453l-53.969-161.502l-35.084,20.247l-47.451,141.255l-43.898-165.615h30.507V87.427
	L30.677,87.381v16.501l11.969,0.003c5.926,0.149,11.036,3.443,14.032,6.935c3.005,3.489,5.76,9.389,8.304,17.679l58.071,207.672
	h21.392l57.989-183.239l59.397,183.239h21.168L283.001,269.453z"/>
<path fill="#AE1F4A" d="M400.906,356.644c-16.79-0.391-27.467-9.942-27.467-28.361l-0.026-289.574h-23.587l-93.696,54.293
	l7.668,22.666l52.647-30.816v271.887l-30.77,0.119l-0.029,18.099l125.964,0.076l-0.041-18.353L400.906,356.644"/>
<path fill="#AE1F4A" d="M547.572,356.644c-16.79-0.391-27.467-9.942-27.467-28.361l-0.026-289.574h-23.587l-93.696,54.293
	l7.668,22.666l52.647-30.816v271.887l-30.77,0.119l-0.029,18.099l125.964,0.076l-0.041-18.353L547.572,356.644"/>
</svg>
